# xmcd
#
# Track frame offsets:
#	182
#	61732
#	105302
#	162345
#	212785
#	242875
#
# Disc length: 3752 seconds
#
# Revision: 1
# Processed by: cddbd v1.5.2PL0 Copyright (c) Steve Scherf et al.
# Submitted via: EasyCDDAExtractor 15.2.5.1
#
DISCID=490ea606
DTITLE=Wolfgang Amadeus Mozart - Complete Mozart Edition, Volume 24: Lieder - 
DTITLE=Notturni
DYEAR=1991
DGENRE=
TTITLE0=Wolfgang Amadeus Mozart - Piano concertos No.22 in E flat major, k482 
TTITLE0=I Allegro
TTITLE1=Wolfgang Amadeus Mozart - Piano concertos No.22 in E flat major, k482 
TTITLE1=II Andante
TTITLE2=Wolfgang Amadeus Mozart - Piano concertos No.22 in E flat major, k482 
TTITLE2=III Allegro
TTITLE3=Johann Georg Leopold Mozart - Piano concertos No.23 in A flat major, k
TTITLE3=488 - I Allegro
TTITLE4=Johann Georg Leopold Mozart - Piano concertos No.23 in A flat major, k
TTITLE4=488 - II Adagio
TTITLE5=Johann Georg Leopold Mozart - Song for Voice and Piano, K. 125f/151 "Die
TTITLE5=Zufriedenheit im niedrigen Stande": "Ich trachte nicht nach solchen D
TTITLE5=ingen"
EXTD=
EXTT0=
EXTT1=
EXTT2=
EXTT3=
EXTT4=
EXTT5=
PLAYORDER=
